<svg width="153" height="32" viewBox="0 0 153 32" fill="none" xmlns="http://www.w3.org/2000/svg">
<g clip-path="url(#clip0_1111_11773)">
<path d="M0 4.33012H5.69521L12.3906 21.2569H12.4906L19.1625 4.33012H24.8754V27.8876H20.4686V11.9669H18.1976L23.128 4.9773L13.9909 27.8817H10.8903L1.74739 4.98318L6.67775 11.9728H4.38908V27.8876H0V4.33012Z" fill="#F2F2F2"/>
<path d="M27.6172 4.33012H32.5475V27.8876H27.6172V4.33012ZM30.0824 24.2104H36.7895C38.1957 24.2104 39.2724 23.9221 40.0196 23.3514C40.7727 22.7807 41.1433 21.9512 41.1433 20.8627V20.8274C41.1433 20.1096 40.9727 19.5036 40.6315 19.0094C40.2902 18.5152 39.7783 18.1387 39.0959 17.8915C38.4134 17.6386 37.5779 17.515 36.5718 17.515H30.0824V14.1673H35.9894C37.3838 14.1673 38.4428 13.8908 39.1665 13.3318C39.8901 12.7729 40.2549 11.9904 40.2549 10.9667V10.9314C40.2549 9.99591 39.9313 9.27224 39.29 8.76038C38.6487 8.24852 37.7485 7.99553 36.5954 7.99553H30.0824V4.33012H37.8662C39.3547 4.33012 40.6432 4.57134 41.7199 5.0479C42.7966 5.52446 43.632 6.20695 44.2145 7.09535C44.8028 7.98376 45.097 9.03102 45.097 10.2371V10.2724C45.097 11.1432 44.897 11.9433 44.5028 12.6788C44.1027 13.4142 43.5614 14.0261 42.8789 14.5085C42.1906 14.991 41.414 15.2969 40.5432 15.4146V15.5146C41.6434 15.5793 42.6142 15.8676 43.4673 16.3736C44.3145 16.8796 44.9852 17.5444 45.4677 18.3622C45.9501 19.1859 46.1913 20.1096 46.1913 21.1451V21.1804C46.1913 22.5513 45.8619 23.7397 45.2029 24.7399C44.544 25.7401 43.6085 26.5167 42.3965 27.0639C41.1845 27.6111 39.7313 27.8876 38.0486 27.8876H30.0824V24.2104Z" fill="#F2F2F2"/>
<path d="M91.1353 2.28853H95.9185V25.846H91.1353V2.28853ZM95.3302 15.344H96.0185L101.926 8.34263H107.327L99.2486 17.5503H98.1896L95.3302 20.698V15.344ZM96.7481 18.121L99.7663 14.4791L107.65 25.8401H102.149L96.7481 18.121Z" fill="#F2F2F2"/>
<path d="M109.639 5.36559C109.145 4.87138 108.897 4.28303 108.897 3.61232C108.897 2.92395 109.145 2.34148 109.639 1.85904C110.133 1.37659 110.739 1.12949 111.457 1.12949C112.175 1.12949 112.781 1.37071 113.269 1.85904C113.757 2.34148 114.004 2.92983 114.004 3.61232C114.004 4.28892 113.757 4.87138 113.269 5.36559C112.781 5.85981 112.175 6.10691 111.457 6.10691C110.739 6.10691 110.133 5.85981 109.639 5.36559ZM109.056 8.34264H113.84V25.8401H109.056V8.34264Z" fill="#F2F2F2"/>
<path d="M117.022 8.34264H121.788V11.2138H121.888C122.347 10.2136 123.018 9.4252 123.912 8.84862C124.806 8.27204 125.907 7.98375 127.224 7.98375C129.148 7.98375 130.637 8.56033 131.69 9.71937C132.737 10.8784 133.267 12.4846 133.267 14.5438V25.8401H128.501V15.544C128.501 14.4026 128.23 13.5142 127.695 12.8847C127.154 12.2552 126.354 11.9374 125.289 11.9374C124.583 11.9374 123.965 12.1022 123.447 12.4258C122.924 12.7553 122.518 13.2024 122.229 13.779C121.941 14.3556 121.8 15.0263 121.8 15.7852V25.8401H117.034V8.34264H117.022Z" fill="#F2F2F2"/>
<path d="M140.274 31.2529C139.08 30.8117 138.138 30.2174 137.432 29.4643C136.726 28.7113 136.303 27.8699 136.15 26.9345L136.114 26.7874H140.768L140.815 26.8991C141.009 27.3228 141.421 27.6993 142.039 28.0288C142.657 28.3583 143.463 28.5171 144.457 28.5171C145.687 28.5171 146.622 28.2229 147.264 27.6346C147.905 27.0462 148.228 26.2696 148.228 25.2988V22.6042H148.128C147.822 23.2161 147.405 23.7397 146.881 24.1869C146.352 24.634 145.74 24.9811 145.034 25.2224C144.334 25.4695 143.563 25.5871 142.722 25.5871C141.262 25.5871 140.003 25.24 138.933 24.5399C137.868 23.8456 137.05 22.8454 136.473 21.5452C135.903 20.2449 135.614 18.6917 135.614 16.8855V16.8678C135.614 15.0086 135.903 13.4142 136.485 12.0845C137.067 10.7549 137.897 9.73702 138.968 9.031C140.039 8.32499 141.309 7.97198 142.78 7.97198C143.61 7.97198 144.363 8.1073 145.051 8.37794C145.74 8.64858 146.34 9.03689 146.858 9.53698C147.375 10.0371 147.793 10.6313 148.105 11.3138H148.217V8.32499H152.982V25.3341C152.982 26.6285 152.635 27.7699 151.947 28.7524C151.258 29.735 150.27 30.5057 148.993 31.0647C147.717 31.6177 146.199 31.9001 144.445 31.9001C142.863 31.9119 141.468 31.6942 140.274 31.2529ZM146.422 21.4863C146.999 21.0745 147.446 20.4861 147.77 19.7213C148.093 18.9564 148.252 18.0563 148.252 17.009V16.9914C148.252 15.9559 148.093 15.0616 147.77 14.3085C147.446 13.5554 146.999 12.9671 146.416 12.5552C145.834 12.1434 145.157 11.9374 144.387 11.9374C143.604 11.9374 142.916 12.1434 142.327 12.5493C141.739 12.9553 141.286 13.5378 140.974 14.2967C140.656 15.0557 140.503 15.9559 140.503 16.9972V17.0149C140.503 18.0622 140.662 18.9623 140.974 19.7272C141.292 20.4861 141.739 21.0745 142.327 21.4922C142.916 21.9041 143.598 22.11 144.387 22.11C145.163 22.1041 145.846 21.8982 146.422 21.4863Z" fill="#F2F2F2"/>
<path d="M75.5614 24.8811C81.8002 24.8811 86.8577 19.8236 86.8577 13.5848C86.8577 7.34605 81.8002 2.28853 75.5614 2.28853C69.3227 2.28853 64.2651 7.34605 64.2651 13.5848C64.2651 19.8236 69.3227 24.8811 75.5614 24.8811Z" stroke="#FCC434" stroke-width="4.39796" stroke-miterlimit="10"/>
<path d="M56.7053 25.1929C60.8774 25.1929 64.2597 21.8107 64.2597 17.6385C64.2597 13.4664 60.8774 10.0841 56.7053 10.0841C52.5331 10.0841 49.1509 13.4664 49.1509 17.6385C49.1509 21.8107 52.5331 25.1929 56.7053 25.1929Z" stroke="#FCC434" stroke-width="4.39796" stroke-miterlimit="10"/>
</g>
<defs>
<clipPath id="clip0_1111_11773">
<rect width="153" height="31.8238" fill="white" transform="translate(0 0.0881195)"/>
</clipPath>
</defs>
</svg>
